<svg xmlns="http://www.w3.org/2000/svg" xmlns:xlink="http://www.w3.org/1999/xlink" viewBox="0 0 51.79 51.81"><defs><style>.cls-1{isolation:isolate;}.cls-2{fill:#e81d23;}.cls-3{mix-blend-mode:overlay;}.cls-4{fill:#fff;}.cls-5{fill:#d1d1d1;}.cls-6{fill:#154374;}.cls-7{fill:#cfbcbf;mix-blend-mode:multiply;}.cls-8{fill:url(#linear-gradient);}</style><linearGradient id="linear-gradient" x1="15.06" y1="5.78" x2="29.33" y2="31.15" gradientUnits="userSpaceOnUse"><stop offset="0.14" stop-color="#fff"/><stop offset="0.2" stop-color="#fff" stop-opacity="0.87"/><stop offset="0.33" stop-color="#fff" stop-opacity="0.64"/><stop offset="0.45" stop-color="#fff" stop-opacity="0.44"/><stop offset="0.57" stop-color="#fff" stop-opacity="0.28"/><stop offset="0.69" stop-color="#fff" stop-opacity="0.16"/><stop offset="0.8" stop-color="#fff" stop-opacity="0.07"/><stop offset="0.91" stop-color="#fff" stop-opacity="0.02"/><stop offset="1" stop-color="#fff" stop-opacity="0"/></linearGradient></defs><g class="cls-1"><g id="Layer_2" data-name="Layer 2"><g id="Layer_1-2" data-name="Layer 1"><path class="cls-2" d="M25.87,51.1A25.23,25.23,0,0,1,3.14,36.7a24.64,24.64,0,0,1-1.72-4.86A25.24,25.24,0,0,1,20,1.42,25.54,25.54,0,0,1,25.91.71a25.2,25.2,0,0,1,5.92,49.68A25.62,25.62,0,0,1,25.87,51.1Z"/><path d="M25.91,1.42a24.49,24.49,0,1,1-22.13,35,23.6,23.6,0,0,1-1.67-4.72A24.48,24.48,0,0,1,25.91,1.42m0-1.42h0A26.31,26.31,0,0,0,19.8.73,26,26,0,0,0,.73,32,25.42,25.42,0,0,0,2.5,37a26,26,0,0,0,23.37,14.8A26.4,26.4,0,0,0,32,51.08,25.91,25.91,0,0,0,25.91,0Z"/><g class="cls-3"><path class="cls-4" d="M25.92,1.42V2.48h0a23.42,23.42,0,0,1,5.49,46.18,23.05,23.05,0,0,1-5.53.67,23.42,23.42,0,0,1-5.5-46.18,23.59,23.59,0,0,1,5.54-.67V1.42m0,0A24.49,24.49,0,1,0,49.68,20.14,24.55,24.55,0,0,0,25.91,1.42Z"/></g><circle class="cls-5" cx="25.79" cy="25.48" r="21.03"/><circle class="cls-2" cx="25.75" cy="25.3" r="15.82"/><circle class="cls-6" cx="25.74" cy="25.28" r="12.36"/><polygon class="cls-4" points="22.83 14.19 27.64 19.93 35.09 19.23 31.11 25.57 34.08 32.44 26.82 30.62 21.2 35.56 20.69 28.1 14.25 24.28 21.2 21.49 22.83 14.19"/><path class="cls-7" d="M31.66,49.7A24.47,24.47,0,0,1,3.78,36.4C35.1,35.83,38.36,13.61,38.44,4.88A24.49,24.49,0,0,1,31.66,49.7Z"/><g class="cls-3"><circle class="cls-8" cx="25.36" cy="24.08" r="20.81"/></g><g class="cls-3"><ellipse class="cls-4" cx="32.69" cy="4.53" rx="1.1" ry="2.19" transform="translate(18.05 34.11) rotate(-71.55)"/></g><g class="cls-3"><ellipse class="cls-4" cx="33.4" cy="7.12" rx="0.5" ry="1.08" transform="translate(16.08 36.55) rotate(-71.55)"/></g></g></g></g></svg>